<?xml version="1.0" encoding="utf-8"?>
<!-- Generator: Adobe Illustrator 28.0.0, SVG Export Plug-In . SVG Version: 6.00 Build 0)  -->
<svg version="1.1" id="Layer_1" xmlns="http://www.w3.org/2000/svg" xmlns:xlink="http://www.w3.org/1999/xlink" x="0px" y="0px"
	 viewBox="0 0 518 120" style="enable-background:new 0 0 518 120;" xml:space="preserve">
<style type="text/css">
	.st0{fill:#FA776C;}
	.st1{fill:#624CF5;}
</style>
<path class="st0" d="M0,27.7c0-7.8,8.5-12.6,15.1-8.6l25.1,15.1c6,3.6,9.7,10.1,9.7,17.1v17.4c0,7-3.7,13.5-9.7,17.1l-25.1,15.1
	c-6.7,4-15.1-0.8-15.1-8.6L0,27.7z"/>
<path class="st1" d="M103.9,0c5.3,0,8,6.4,4.3,10.2L94.9,23.9c-3.8,3.9-9,6.1-14.4,6.1h-25c-3.6,0-7.2-1-10.3-2.9l-26.7-16
	C13.4,8,15.6,0,21.7,0L103.9,0z"/>
<path class="st1" d="M103.9,120c5.3,0,8-6.4,4.3-10.2L94.9,96.1c-3.8-3.9-9-6.1-14.4-6.1h-25c-3.6,0-7.2,1-10.3,2.9l-26.7,16
	c-5.2,3.1-3,11.1,3.1,11.1H103.9z"/>
<path class="st0" d="M71,45L71,45c8.3,0,15,6.7,15,15l0,0c0,8.3-6.7,15-15,15l0,0c-8.3,0-15-6.7-15-15l0,0C56,51.7,62.7,45,71,45z"
	/>
<path d="M162,52.9h27.2V65H162V52.9z M162.9,80.5h30.7V93H150V25.8h42.6v12.5h-29.7V80.5z M214.5,93l-18.2-51.6h13l15.2,44.4H218
	l15.7-44.4h12.1L227.5,93H214.5z M404.5,48.2L426.9,15l0,23.6l-19.3,27.6l0-11.7L427,83l0,22l-22.5-33.2L404.5,48.2z M271.3,93.8
	c-4.9,0-9.3-1.2-13.1-3.5c-3.7-2.3-6.6-5.4-8.6-9.4c-2-4-3.1-8.6-3.1-13.7c0-5.2,1-9.8,3-13.7c2-4,4.8-7.2,8.3-9.4
	c3.5-2.3,7.4-3.5,11.8-3.5c4.2,0,8.1,1.1,11.4,3.3c3.4,2.1,6.2,5.2,8.1,9.2c2,4,3,8.7,3,14.3c0,0.6,0,1.2-0.1,2
	c-0.1,0.7-0.1,1.4-0.2,2h-35.2v-8.7h28.6l-4.8,2.6c0-2.7-0.5-5-1.4-7c-0.9-2-2.2-3.5-3.8-4.6c-1.6-1.2-3.5-1.7-5.6-1.7
	c-2.1,0-4.1,0.6-5.7,1.7c-1.6,1.1-2.9,2.7-3.8,4.7c-0.9,2-1.4,4.4-1.4,7.1v2.3c0,2.8,0.5,5.3,1.5,7.5c1.1,2.1,2.6,3.7,4.4,4.9
	c1.9,1.1,4.2,1.6,6.8,1.6c2.3,0,4.3-0.4,6-1.2c1.8-0.8,3.4-2.1,4.8-3.7l6.7,8.6c-2,2.7-4.5,4.8-7.5,6.2
	C278.7,93.1,275.2,93.8,271.3,93.8z M457.4,93.8c-4.9,0-9.3-1.2-13.1-3.5c-3.7-2.3-6.6-5.4-8.6-9.4c-2-4-3.1-8.6-3.1-13.7
	c0-5.2,1-9.8,3-13.7c2-4,4.8-7.2,8.3-9.4c3.5-2.3,7.4-3.5,11.8-3.5c4.2,0,8.1,1.1,11.4,3.3c3.4,2.1,6.2,5.2,8.1,9.2
	c2,4,3,8.7,3,14.3c0,0.6,0,1.2-0.1,2c-0.1,0.7-0.1,1.4-0.2,2h-35.2v-8.7h28.6l-4.8,2.6c0-2.7-0.5-5-1.4-7c-0.9-2-2.2-3.5-3.8-4.6
	c-1.6-1.2-3.5-1.7-5.6-1.7c-2.1,0-4.1,0.6-5.7,1.7c-1.6,1.1-2.9,2.7-3.8,4.7c-0.9,2-1.4,4.4-1.4,7.1v2.3c0,2.8,0.5,5.3,1.5,7.5
	c1.1,2.1,2.6,3.7,4.4,4.9c1.9,1.1,4.2,1.6,6.8,1.6c2.3,0,4.3-0.4,6-1.2c1.8-0.8,3.4-2.1,4.8-3.7l6.7,8.6c-2,2.7-4.5,4.8-7.5,6.2
	C464.8,93.1,461.3,93.8,457.4,93.8z M458.7,40.6c4.9-0.1,9.3,1,13.1,3.2c3.8,2.2,6.7,5.3,8.8,9.2c2.1,4,3.2,8.5,3.3,13.7
	c0.1,5.2-0.8,9.8-2.7,13.8c-2,4.1-4.7,7.3-8.1,9.6c-3.4,2.4-7.4,3.6-11.8,3.7c-4.2,0.1-8.1-0.9-11.5-3c-3.5-2-6.3-5.1-8.3-9.1
	c-2.1-3.9-3.2-8.7-3.3-14.2c0-0.6,0-1.2,0-2c0-0.7,0.1-1.4,0.1-2l35.2-0.7l0.2,8.7L445.2,72l4.8-2.7c0.1,2.7,0.6,5,1.5,7
	c1,2,2.2,3.5,3.9,4.5c1.6,1.1,3.5,1.7,5.7,1.6c2.1,0,4-0.7,5.7-1.8c1.6-1.1,2.8-2.7,3.7-4.8c0.9-2,1.3-4.4,1.2-7.1l0-2.3
	c-0.1-2.8-0.6-5.3-1.7-7.5c-1.1-2.1-2.6-3.7-4.5-4.8c-2-1-4.2-1.5-6.8-1.5c-2.3,0-4.3,0.5-6,1.4c-1.8,0.9-3.3,2.1-4.8,3.8l-6.9-8.5
	c1.9-2.7,4.4-4.9,7.4-6.4C451.3,41.5,454.7,40.7,458.7,40.6z M327,40.6c3.4,0,6.5,0.8,9.2,2.5c2.7,1.6,4.9,4.1,6.4,7.5
	c1.6,3.3,2.3,7.6,2.3,12.9V93h-12.6V65.7c0-4.2-0.8-7.2-2.3-9.2c-1.5-2-3.7-3-6.4-3c-2,0-3.8,0.5-5.4,1.5c-1.6,1-2.8,2.5-3.7,4.5
	c-0.9,2-1.3,4.7-1.3,7.9V93h-12.6V41.4h12v14.3l-2.3-4.3c1.6-3.5,3.8-6.1,6.7-8S323.3,40.6,327,40.6z M374.1,93.8
	c-5.1,0-9.1-1.5-11.9-4.6c-2.8-3.1-4.3-7.8-4.3-13.9V29.9h12.6V75c0,2.2,0.5,3.9,1.5,5.1c1,1.2,2.3,1.7,3.9,1.7c2,0,3.7-0.6,5.1-1.9
	l3.4,10.6c-1.3,1.1-2.8,1.9-4.7,2.5C377.9,93.5,376,93.8,374.1,93.8z M351.2,54V42.5h30.1V54H351.2z M404.5,91.9h-11V28.1h11V91.9z"
	/>
</svg>
